<!-- <svg id="Layer_1" data-name="Layer 1" xmlns="http://www.w3.org/2000/svg" viewBox="0 0 125 38"><defs><style>.cls-1{fill:#0b36a8;}.cls-2{fill:#fff;}</style></defs><title>logo</title><ellipse class="cls-1" cx="19.009" cy="19" rx="19.009" ry="19"/><path class="cls-2" d="M11.876,15.151q-0.045-.3-0.105-0.631c0,0.09.015,0.021,0.046-.21s0.07-.626.12-1.188a1.436,1.436,0,0,0,.173-0.294c0.035-.084.068-0.162,0.1-0.233a2.442,2.442,0,0,1-.2-0.278,0.388,0.388,0,0,1-.068-0.188q0.12-.917.226-1.745a0.929,0.929,0,0,1,.263-0.511,4.565,4.565,0,0,1,.685-0.617,5.3,5.3,0,0,1,.677-0.481,4.689,4.689,0,0,1,.631-0.316A1.3,1.3,0,0,0,14.9,8.233a0.214,0.214,0,0,1,.165-0.09,0.4,0.4,0,0,1,.369.241,1.589,1.589,0,0,1,.128.722,2.78,2.78,0,0,1-.128.707,2.753,2.753,0,0,0-.128.662q0,0.09.023,0.692T15.4,12.9a8.108,8.108,0,0,0,.233,1.73,19.439,19.439,0,0,0,.564,1.91A6.373,6.373,0,0,0,17.2,18.469a1.556,1.556,0,0,0,1.189.639,2.491,2.491,0,0,0,1.354-.662,15.217,15.217,0,0,0,1.987-1.986q0.873-1.022,1.558-1.91A14.564,14.564,0,0,0,24.4,12.926a5.984,5.984,0,0,1,.918-1.188,7.245,7.245,0,0,1,1.2-.963l0.346-.2a0.487,0.487,0,0,1,.211-0.075,0.477,0.477,0,0,1,.408.406,3.871,3.871,0,0,1,.141,1.2q-0.09.736-.15,1.459-0.136,1.128-.4,2.346t-0.683,2.527q-0.21.662-.361,1.158a7.377,7.377,0,0,0-.21.843c-0.02.13-.048,0.293-0.083,0.488s-0.073.424-.113,0.684c-0.1.251-.21,0.5-0.33,0.753a3.263,3.263,0,0,0-.248.721q-0.1.421-.172,0.978c0,0.07-.005.161-0.015,0.271s-0.021.225-.03,0.346q-0.345,1.534-.706,2.979a1.624,1.624,0,0,1-.135.346,1.438,1.438,0,0,0-.443.255,3.183,3.183,0,0,0-.518.542,3.99,3.99,0,0,1-.451.443,0.539,0.539,0,0,1-.271.143,0.264,0.264,0,0,1-.2-0.075,0.352,0.352,0,0,1-.075-0.255,0.8,0.8,0,0,1,.045-0.2,7.052,7.052,0,0,0,.369-1.474q0.158-.962.294-2.377,0.015-.3.24-1.625t0.662-3.67q0.059-.376.158-0.925t0.248-1.256c0.07-.241.128-0.449,0.173-0.624a1.751,1.751,0,0,0,.068-0.384,0.362,0.362,0,0,0-.052-0.218,0.189,0.189,0,0,0-.159-0.068,0.73,0.73,0,0,0-.331.233,6.9,6.9,0,0,0-.6.7c-0.14.17-.283,0.351-0.429,0.541s-0.3.376-.459,0.557q-0.407.421-.753,0.8l-1.114,1.113-0.369.226q-0.218.135-.519,0.316a2.287,2.287,0,0,1-.911.774,2.534,2.534,0,0,1-1.152.323,2.1,2.1,0,0,1-1.211-.4,4.351,4.351,0,0,1-1.121-1.226q-0.241-.407-0.474-0.812t-0.5-.812l-0.075.015a6.094,6.094,0,0,0-.278,1.219q-0.2,1.129-.519,3.309-0.347,2.241-.527,3.52a15.7,15.7,0,0,0-.181,1.654,1.848,1.848,0,0,1-.188.79,0.628,0.628,0,0,1-.489.323,4.082,4.082,0,0,0-.466.083q-0.3.068-.722,0.172a0.408,0.408,0,0,1-.135-0.052,0.125,0.125,0,0,1-.06-0.114l0.09-.556-0.15-.572q0.09-.467.181-0.9,0.059-.9.105-1.7a4.226,4.226,0,0,1,.113-0.556,2.678,2.678,0,0,0,.1-0.586,1.563,1.563,0,0,0-.045-0.308,1.582,1.582,0,0,1-.045-0.308A16.722,16.722,0,0,1,11.1,21.56a16.841,16.841,0,0,0,.263-2.467Q11.32,18.747,11.26,18.4q0.076-.542.241-1.354T11.876,15.151Z"/><path class="cls-2" d="M72.57,8.175v21.9H68.947V13.658L62.613,30.074h-3.15L53.1,13.658V30.074H49.506V8.175h4.348L61.1,25.663,68.222,8.175H72.57Z"/><path class="cls-2" d="M87.883,13.658a6.286,6.286,0,0,1,2.363,3.087V12.712h3.592V30.074H90.246V26.04a6.275,6.275,0,0,1-2.363,3.087,6.854,6.854,0,0,1-4.033,1.167A7.684,7.684,0,0,1,79.8,29.222a7.312,7.312,0,0,1-2.789-3.087A10.523,10.523,0,0,1,76,21.379a10.461,10.461,0,0,1,1.008-4.728A7.327,7.327,0,0,1,79.8,13.563a7.707,7.707,0,0,1,4.049-1.072A6.873,6.873,0,0,1,87.883,13.658Zm-6.759,3.513a5.9,5.9,0,0,0-1.433,4.208,5.9,5.9,0,0,0,1.433,4.205,5,5,0,0,0,3.828,1.528,5.2,5.2,0,0,0,2.71-.71,5.026,5.026,0,0,0,1.89-2,6.309,6.309,0,0,0,.694-3.023,6.336,6.336,0,0,0-.694-3.01,5,5,0,0,0-1.89-2.015,5.2,5.2,0,0,0-2.71-.71A5,5,0,0,0,81.124,17.171Z"/><path class="cls-2" d="M104.268,13.422a7.149,7.149,0,0,1,3.78-.992v3.905h-1.069a5.884,5.884,0,0,0-3.8,1.151,4.59,4.59,0,0,0-1.433,3.8v8.79H98.155V12.712h3.592v3.4A6.689,6.689,0,0,1,104.268,13.422Z"/><path class="cls-2" d="M120.559,30.074l-6.239-7.721v7.721h-3.592V6.757h3.592V20.117l6.175-7.405h4.318l-7.564,8.634L125,30.074h-4.441Z"/></svg> -->

<!-- <svg id="Layer_1" data-name="Layer 1" xmlns="http://www.w3.org/2000/svg" viewBox="0 0 125 38">
  <defs>
    <style>.cls-1{fill:#0b36a8;}.cls-2{fill:#fff;}</style>
  </defs>
  <title>logo</title>
  <ellipse class="cls-1" cx="19.009" cy="19" rx="19.009" ry="19"/>
  <path class="cls-2" d="M11.876,15.151q-0.045-.3-0.105-0.631c0,0.09.015,0.021,0.046-.21s0.07-.626.12-1.188a1.436,1.436,0,0,0,.173-0.294c0.035-.084.068-0.162,0.1-0.233a2.442,2.442,0,0,1-.2-0.278,0.388,0.388,0,0,1-.068-0.188q0.12-.917.226-1.745a0.929,0.929,0,0,1,.263-0.511,4.565,4.565,0,0,1,.685-0.617,5.3,5.3,0,0,1,.677-0.481,4.689,4.689,0,0,1,.631-0.316A1.3,1.3,0,0,0,14.9,8.233a0.214,0.214,0,0,1,.165-0.09,0.4,0.4,0,0,1,.369.241,1.589,1.589,0,0,1,.128.722,2.78,2.78,0,0,1-.128.707,2.753,2.753,0,0,0-.128.662q0,0.09.023,0.692T15.4,12.9a8.108,8.108,0,0,0,.233,1.73,19.439,19.439,0,0,0,.564,1.91A6.373,6.373,0,0,0,17.2,18.469a1.556,1.556,0,0,0,1.189.639,2.491,2.491,0,0,0,1.354-.662,15.217,15.217,0,0,0,1.987-1.986q0.873-1.022,1.558-1.91A14.564,14.564,0,0,0,24.4,12.926a5.984,5.984,0,0,1,.918-1.188,7.245,7.245,0,0,1,1.2-.963l0.346-.2a0.487,0.487,0,0,1,.211-0.075,0.477,0.477,0,0,1,.408.406,3.871,3.871,0,0,1,.141,1.2q-0.09.736-.15,1.459-0.136,1.128-.4,2.346t-0.683,2.527q-0.21.662-.361,1.158a7.377,7.377,0,0,0-.21.843c-0.02.13-.048,0.293-0.083,0.488s-0.073.424-.113,0.684c-0.1.251-.21,0.5-0.33,0.753a3.263,3.263,0,0,0-.248.721q-0.1.421-.172,0.978c0,0.07-.005.161-0.015,0.271s-0.021.225-.03,0.346q-0.345,1.534-.706,2.979a1.624,1.624,0,0,1-.135.346,1.438,1.438,0,0,0-.443.255,3.183,3.183,0,0,0-.518.542,3.99,3.99,0,0,1-.451.443,0.539,0.539,0,0,1-.271.143,0.264,0.264,0,0,1-.2-0.075,0.352,0.352,0,0,1-.075-0.255,0.8,0.8,0,0,1,.045-0.2,7.052,7.052,0,0,0,.369-1.474q0.158-.962.294-2.377,0.015-.3.24-1.625t0.662-3.67q0.059-.376.158-0.925t0.248-1.256c0.07-.241.128-0.449,0.173-0.624a1.751,1.751,0,0,0,.068-0.384,0.362,0.362,0,0,0-.052-0.218,0.189,0.189,0,0,0-.159-0.068,0.73,0.73,0,0,0-.331.233,6.9,6.9,0,0,0-.6.7c-0.14.17-.283,0.351-0.429,0.541s-0.3.376-.459,0.557q-0.407.421-.753,0.8l-1.114,1.113-0.369.226q-0.218.135-.519,0.316a2.287,2.287,0,0,1-.911.774,2.534,2.534,0,0,1-1.152.323,2.1,2.1,0,0,1-1.211-.4,4.351,4.351,0,0,1-1.121-1.226q-0.241-.407-0.474-0.812t-0.5-.812l-0.075.015a6.094,6.094,0,0,0-.278,1.219q-0.2,1.129-.519,3.309-0.347,2.241-.527,3.52a15.7,15.7,0,0,0-.181,1.654,1.848,1.848,0,0,1-.188.79,0.628,0.628,0,0,1-.489.323,4.082,4.082,0,0,0-.466.083q-0.3.068-.722,0.172a0.408,0.408,0,0,1-.135-0.052,0.125,0.125,0,0,1-.06-0.114l0.09-.556-0.15-.572q0.09-.467.181-0.9,0.059-.9.105-1.7a4.226,4.226,0,0,1,.113-0.556,2.678,2.678,0,0,0,.1-0.586,1.563,1.563,0,0,0-.045-0.308,1.582,1.582,0,0,1-.045-0.308A16.722,16.722,0,0,1,11.1,21.56a16.841,16.841,0,0,0,.263-2.467Q11.32,18.747,11.26,18.4q0.076-.542.241-1.354T11.876,15.151Z"/>
  <text x="40" y="24" font-family="Arial" font-size="18" fill="#fff">Andy</text>
</svg> -->
<!-- 
<svg id="Layer_1" data-name="Layer 1" xmlns="http://www.w3.org/2000/svg" viewBox="0 0 125 38">
  <defs>
    <style>.cls-1{fill:#0b36a8;}.cls-2{fill:#fff;}.cls-3{font-family:'Arial', sans-serif;font-size:18px;}</style>
  </defs>
  <title>logo</title>
  <ellipse class="cls-1" cx="19.009" cy="19" rx="19.009" ry="19"/>
  <text x="14" y="25" class="cls-2 cls-3">A</text>
  <text x="40" y="25" class="cls-2 cls-3">Andy</text>
</svg> -->


<!-- <svg id="Layer_1" data-name="Layer 1" xmlns="http://www.w3.org/2000/svg" viewBox="0 0 125 38">
  <defs>
    <style>
      .cls-1{fill:#0b36a8;}
      .cls-2{fill:#fff;font-family:'Arial', sans-serif;font-weight:bold;font-size:20px;}
      .cls-3{fill:#fff;font-family:'Arial', sans-serif;font-weight:bold;font-size:15px;}
    </style>
  </defs>
  <title>logo</title>
  <ellipse class="cls-1" cx="19.009" cy="19" rx="19.009" ry="19"/>
  <text x="13" y="25" class="cls-2">A</text>
  <text x="40" y="25" class="cls-3">Andy</text>
</svg> -->


<!-- <svg id="Layer_1" data-name="Layer 1" xmlns="http://www.w3.org/2000/svg" viewBox="0 0 125 38">
  <defs>
    <style>.cls-1{fill:#0b36a8;}.cls-2{fill:#fff;}</style>
  </defs>
  <title>logo</title>
  <ellipse class="cls-1" cx="19.009" cy="19" rx="19.009" ry="19"/>
  <path class="cls-2" d="M11.876,15.151q-0.045-.3-0.105-0.631c0,0.09.015,0.021,0.046-.21s0.07-.626.12-1.188a1.436,1.436,0,0,0,.173-0.294c0.035-.084.068-0.162,0.1-0.233a2.442,2.442,0,0,1-.2-0.278,0.388,0.388,0,0,1-.068-0.188q0.12-.917.226-1.745a0.929,0.929,0,0,1,.263-0.511,4.565,4.565,0,0,1,.685-0.617,5.3,5.3,0,0,1,.677-0.481,4.689,4.689,0,0,1,.631-0.316A1.3,1.3,0,0,0,14.9,8.233a0.214,0.214,0,0,1,.165-0.09,0.4,0.4,0,0,1,.369.241,1.589,1.589,0,0,1,.128.722,2.78,2.78,0,0,1-.128.707,2.753,2.753,0,0,0-.128.662q0,0.09.023,0.692T15.4,12.9a8.108,8.108,0,0,0,.233,1.73,19.439,19.439,0,0,0,.564,1.91A6.373,6.373,0,0,0,17.2,18.469a1.556,1.556,0,0,0,1.189.639,2.491,2.491,0,0,0,1.354-.662,15.217,15.217,0,0,0,1.987-1.986q0.873-1.022,1.558-1.91A14.564,14.564,0,0,0,24.4,12.926a5.984,5.984,0,0,1,.918-1.188,7.245,7.245,0,0,1,1.2-.963l0.346-.2a0.487,0.487,0,0,1,.211-0.075,0.477,0.477,0,0,1,.408.406,3.871,3.871,0,0,1,.141,1.2q-0.09.736-.15,1.459-0.136,1.128-.4,2.346t-0.683,2.527q-0.21.662-.361,1.158a7.377,7.377,0,0,0-.21.843c-0.02.13-.048,0.293-0.083,0.488s-0.073.424-.113,0.684c-0.1.251-.21,0.5-0.33,0.753a3.263,3.263,0,0,0-.248.721q-0.1.421-.172,0.978c0,0.07-.005.161-0.015,0.271s-0.021.225-.03,0.346q-0.345,1.534-.706,2.979a1.624,1.624,0,0,1-.135.346,1.438,1.438,0,0,0-.443.255,3.183,3.183,0,0,0-.518.542,3.99,3.99,0,0,1-.451.443,0.539,0.539,0,0,1-.271.143,0.264,0.264,0,0,1-.2-0.075,0.352,0.352,0,0,1-.075-0.255,0.8,0.8,0,0,1,.045-0.2,7.052,7.052,0,0,0,.369-1.474q0.158-.962.294-2.377,0.015-.3.24-1.625t0.662-3.67q0.059-.376.158-0.925t0.248-1.256c0.07-.241.128-0.449,0.173-0.624a1.751,1.751,0,0,0,.068-0.384,0.362,0.362,0,0,0-.052-0.218,0.189,0.189,0,0,0-.159-0.068,0.73,0.73,0,0,0-.331.233,6.9,6.9,0,0,0-.6.7c-0.14.17-.283,0.351-0.429,0.541s-0.3.376-.459,0.557q-0.407.421-.753,0.8l-1.114,1.113-0.369.226q-0.218.135-.519,0.316a2.287,2.287,0,0,1-.911.774,2.534,2.534,0,0,1-1.152.323,2.1,2.1,0,0,1-1.211-.4,4.351,4.351,0,0,1-1.121-1.226q-0.241-.407-0.474-0.812t-0.5-.812l-0.075.015a6.094,6.094,0,0,0-.278,1.219q-0.2,1.129-.519,3.309-0.347,2.241-.527,3.52a15.7,15.7,0,0,0-.181,1.654,1.848,1.848,0,0,1-.188.79,0.628,0.628,0,0,1-.489.323,4.082,4.082,0,0,0-.466.083q-0.3.068-.722,0.172a0.408,0.408,0,0,1-.135-0.052,0.125,0.125,0,0,1-.06-0.114l0.09-.556-0.15-.572q0.09-.467.181-0.9,0.059-.9.105-1.7a4.226,4.226,0,0,1,.113-0.556,2.678,2.678,0,0,0,.1-0.586,1.563,1.563,0,0,0-.045-0.308,1.582,1.582,0,0,1-.045-0.308A16.722,16.722,0,0,1,11.1,21.56a16.841,16.841,0,0,0,.263-2.467Q11.32,18.747,11.26,18.4q0.076-.542.241-1.354T11.876,15.151Z"/>
  <path class="cls-2" d="M72.57,8.175v21.9H68.947V13.658L62.613,30.074h-3.15L53.1,13.658V30.074H49.506V8.175h4.348L61.1,25.663,68.222,8.175H72.57Z"/>
  <path class="cls-2" d="M87.883,13.658a6.286,6.286,0,0,1,2.363,3.087V12.712h3.592V30.074H90.246V26.04a6.275,6.275,0,0,1-2.363,3.087,6.854,6.854,0,0,1-4.033,1.167A7.684,7.684,0,0,1,79.8,29.222a7.312,7.312,0,0,1-2.789-3.087A10.523,10.523,0,0,1,76,21.379a10.461,10.461,0,0,1,1.008-4.728A7.327,7.327,0,0,1,79.8,13.563a7.707,7.707,0,0,1,4.049-1.072A6.873,6.873,0,0,1,87.883,13.658Zm-6.759,3.513a5.9,5.9,0,0,0-1.433,4.208,5.9,5.9,0,0,0,1.433,4.205,5,5,0,0,0,3.828,1.528,5.2,5.2,0,0,0,2.71-.71,5.026,5.026,0,0,0,1.89-2,6.309,6.309,0,0,0,.694-3.023,6.336,6.336,0,0,0-.694-3.01,5,5,0,0,0-1.89-2.015,5.2,5.2,0,0,0-2.71-.71A5,5,0,0,0,81.124,17.171Z"/>
  <path class="cls-2" d="M104.268,13.422a7.149,7.149,0,0,1,3.78-.992v3.905h-1.069a5.884,5.884,0,0,0-3.8,1.151,4.59,4.59,0,0,0-1.433,3.8v8.79H98.155V12.712h3.592v3.4A6.689,6.689,0,0,1,104.268,13.422Z"/>
  <path class="cls-2" d="M120.559,30.074l-6.239-7.721v7.721h-3.592V6.757h3.592V20.117l6.175-7.405h4.318l-7.564,8.634L125,30.074h-4.441Z"/>
</svg> -->



<!-- <svg xmlns="http://www.w3.org/2000/svg" width="3000" height="3000" viewBox="0 0 192.756 192.756"><g fill-rule="evenodd" clip-rule="evenodd"><path fill="#fff" d="M0 0h192.756v192.756H0V0z"/><path d="M177.975 103.881c-1.29.525-2.866.967-4.729 1.326a29.271 29.271 0 0 1-5.518.537c-2.149 0-4.18-.215-6.091-.646-1.911-.43-3.654-1.051-5.23-1.862-2.962-1.577-5.076-3.583-6.342-6.02s-1.899-5.708-1.899-9.817V72.424h14.26V87.4c0 2.102.598 3.75 1.792 4.944 1.193 1.195 2.604 1.792 4.228 1.792 1.672 0 3.093-.585 4.264-1.756 1.17-1.17 1.755-2.83 1.755-4.98V72.424h14.26V87.4c0 3.822-1.039 7.225-3.117 10.211-2.081 2.986-4.624 5.076-7.633 6.27zm-17.896 6.849l8.175-4.536 8.234.009v9.337l-8.257 4.476-8.152.018v-9.304zm-58.652-26.425v-11.86h21.568c3.345 0 6.366.429 9.064 1.286 2.699.857 5.004 2.287 6.915 4.287 2.389 2.429 4.191 5.18 5.41 8.252 1.218 3.072 1.827 6.228 1.827 9.467 0 4.192-.836 8.097-2.508 11.717s-3.869 6.288-6.593 8.003c-2.483 1.477-5.242 2.607-8.275 3.394-3.034.786-5.96 1.179-8.778 1.179h-18.631l-.002-24.883 14.334-8.874-.001 22.325c5.446 0 9.578-1.286 12.396-3.858 2.437-2.238 3.655-5.097 3.655-8.573 0-3.192-.884-5.931-2.651-8.217-1.911-2.429-4.323-3.644-7.237-3.644h-20.493v-.001zm-75.699 6.293l-9.885.041-9.159 29.459h11.069l2.791-9.859 10.701-.008 3.955 9.836h17.71L37.121 72.445H22.797l7.528 29.68-8.016-.02 3.419-11.507zm58.46-18.195c4.825 0 8.264.93 10.318 2.791s3.082 4.89 3.082 9.087v35.776H82.182V89.432c0-2.528-.215-4.019-.645-4.472-.43-.454-1.792-.68-4.084-.68h-7.309v35.776h-14.26V84.079h-1.229l-4.349-11.715 5.577.041v-.002h28.305z" fill="#bbbcbf"/><path d="M174.125 103.885c-1.289.525-2.865.968-4.729 1.326s-3.703.537-5.518.537c-2.15 0-4.18-.215-6.091-.645s-3.654-1.051-5.231-1.863c-2.961-1.576-5.075-3.583-6.341-6.02-1.267-2.436-1.899-5.708-1.899-9.816V72.428h14.26v14.977c0 2.102.597 3.75 1.791 4.944s2.604 1.791 4.229 1.791c1.672 0 3.093-.585 4.263-1.755 1.171-1.17 1.756-2.831 1.756-4.98V72.428h14.26v14.977c0 3.821-1.039 7.226-3.117 10.211s-4.623 5.074-7.633 6.269zm-17.895 6.85l8.175-4.537 8.233.01v9.337l-8.256 4.475-8.152.019v-9.304zM97.578 84.31V72.45h21.568c3.344 0 6.365.428 9.064 1.286 2.699.857 5.004 2.286 6.915 4.287 2.389 2.429 4.191 5.18 5.409 8.252 1.219 3.072 1.828 6.228 1.828 9.467 0 4.191-.836 8.098-2.508 11.718s-3.869 6.287-6.593 8.002c-2.484 1.477-5.243 2.607-8.276 3.394s-5.959 1.179-8.777 1.179h-18.63l-.002-24.882 14.334-8.875-.001 22.325c5.446 0 9.578-1.286 12.396-3.857 2.437-2.239 3.654-5.097 3.654-8.574 0-3.191-.884-5.931-2.651-8.217-1.91-2.429-4.323-3.644-7.237-3.644H97.578v-.001zm-75.7 6.293l-9.885.04-9.159 29.459h11.069l2.792-9.859 10.7-.008 3.955 9.836h17.71L33.272 72.449H18.948l7.528 29.68-8.016-.019 3.418-11.507zm58.461-18.196c4.825 0 8.265.93 10.318 2.79 2.055 1.861 3.082 4.89 3.082 9.087v35.776H78.333V89.437c0-2.528-.215-4.019-.645-4.472-.43-.454-1.792-.68-4.084-.68h-7.309v35.776h-14.26V84.083h-1.229l-4.349-11.715 5.578.041v-.002h28.304z" fill="#28539c"/><path d="M185.7 111.944c.709 0 1.4.182 2.077.545a3.878 3.878 0 0 1 1.578 1.562c.377.677.565 1.384.565 2.119 0 .729-.185 1.428-.558 2.099a3.928 3.928 0 0 1-1.561 1.564c-.671.373-1.371.558-2.103.558s-1.433-.185-2.102-.558a3.938 3.938 0 0 1-1.565-1.564 4.25 4.25 0 0 1-.56-2.099c0-.735.189-1.442.567-2.119a3.894 3.894 0 0 1 1.582-1.562c.678-.363 1.371-.545 2.08-.545zm0 .7a3.6 3.6 0 0 0-1.733.457 3.273 3.273 0 0 0-1.318 1.303 3.574 3.574 0 0 0-.476 1.768c0 .607.157 1.19.469 1.749.312.558.747.993 1.307 1.305s1.143.468 1.752.468a3.56 3.56 0 0 0 1.753-.468c.56-.312.993-.747 1.303-1.305.31-.559.464-1.142.464-1.749 0-.613-.156-1.202-.472-1.768-.315-.563-.755-.999-1.318-1.303s-1.142-.457-1.731-.457zm-1.853 5.86v-4.544h1.562c.535 0 .921.04 1.16.124.238.084.428.231.571.439.141.211.212.433.212.667 0 .333-.119.621-.355.868-.237.246-.553.384-.944.414.161.067.291.147.386.241.184.18.407.479.673.901l.555.889h-.896l-.403-.717c-.317-.562-.571-.915-.766-1.057-.135-.104-.331-.156-.589-.156h-.43v1.93h-.736v.001zm.734-2.557h.89c.425 0 .715-.064.87-.191a.62.62 0 0 0 .233-.504.62.62 0 0 0-.113-.361.656.656 0 0 0-.31-.236c-.134-.054-.378-.079-.737-.079h-.833v1.371z"/></g></svg> -->

<svg xmlns="http://www.w3.org/2000/svg" width="3000" height="2000" viewBox="0 0 192.756 192.756">
  <g fill-rule="evenodd" clip-rule="evenodd">
    <!-- Remove white background path -->
    <path d="M177.975 103.881c-1.29.525-2.866.967-4.729 1.326a29.271 29.271 0 0 1-5.518.537c-2.149 0-4.18-.215-6.091-.646-1.911-.43-3.654-1.051-5.23-1.862-2.962-1.577-5.076-3.583-6.342-6.02s-1.899-5.708-1.899-9.817V72.424h14.26V87.4c0 2.102.598 3.75 1.792 4.944 1.193 1.195 2.604 1.792 4.228 1.792 1.672 0 3.093-.585 4.264-1.756 1.17-1.17 1.755-2.83 1.755-4.98V72.424h14.26V87.4c0 3.822-1.039 7.225-3.117 10.211-2.081 2.986-4.624 5.076-7.633 6.27zm-17.896 6.849l8.175-4.536 8.234.009v9.337l-8.257 4.476-8.152.018v-9.304zm-58.652-26.425v-11.86h21.568c3.345 0 6.366.429 9.064 1.286 2.699.857 5.004 2.287 6.915 4.287 2.389 2.429 4.191 5.18 5.41 8.252 1.218 3.072 1.827 6.228 1.827 9.467 0 4.192-.836 8.097-2.508 11.717s-3.869 6.288-6.593 8.003c-2.483 1.477-5.242 2.607-8.275 3.394-3.034.786-5.96 1.179-8.778 1.179h-18.631l-.002-24.883 14.334-8.874-.001 22.325c5.446 0 9.578-1.286 12.396-3.858 2.437-2.238 3.655-5.097 3.655-8.573 0-3.192-.884-5.931-2.651-8.217-1.911-2.429-4.323-3.644-7.237-3.644h-20.493v-.001zm-75.699 6.293l-9.885.041-9.159 29.459h11.069l2.791-9.859 10.701-.008 3.955 9.836h17.71L37.121 72.445H22.797l7.528 29.68-8.016-.02 3.419-11.507zm58.46-18.195c4.825 0 8.264.93 10.318 2.791s3.082 4.89 3.082 9.087v35.776H82.182V89.432c0-2.528-.215-4.019-.645-4.472-.43-.454-1.792-.68-4.084-.68h-7.309v35.776h-14.26V84.079h-1.229l-4.349-11.715 5.577.041v-.002h28.305z" fill="#bbbcbf"/>
    <path d="M174.125 103.885c-1.289.525-2.865.968-4.729 1.326s-3.703.537-5.518.537c-2.15 0-4.18-.215-6.091-.645s-3.654-1.051-5.231-1.863c-2.961-1.576-5.075-3.583-6.341-6.02-1.267-2.436-1.899-5.708-1.899-9.816V72.428h14.26v14.977c0 2.102.597 3.75 1.791 4.944s2.604 1.791 4.229 1.791c1.672 0 3.093-.585 4.263-1.755 1.171-1.17 1.756-2.831 1.756-4.98V72.428h14.26v14.977c0 3.821-1.039 7.226-3.117 10.211s-4.623 5.074-7.633 6.269zm-17.895 6.85l8.175-4.537 8.233.01v9.337l-8.256 4.475-8.152.019v-9.304zM97.578 84.31V72.45h21.568c3.344 0 6.365.428 9.064 1.286 2.699.857 5.004 2.286 6.915 4.287 2.389 2.429 4.191 5.18 5.409 8.252 1.219 3.072 1.828 6.228 1.828 9.467 0 4.191-.836 8.098-2.508 11.718s-3.869 6.287-6.593 8.002c-2.484 1.477-5.243 2.607-8.276 3.394s-5.959 1.179-8.777 1.179h-18.63l-.002-24.882 14.334-8.875-.001 22.325c5.446 0 9.578-1.286 12.396-3.857 2.437-2.239 3.654-5.097 3.654-8.574 0-3.191-.884-5.931-2.651-8.217-1.91-2.429-4.323-3.644-7.237-3.644H97.578v-.001zm-75.7 6.293l-9.885.04-9.159 29.459h11.069l2.792-9.859 10.7-.008 3.955 9.836h17.71L33.272 72.449H18.948l7.528 29.68-8.016-.019 3.418-11.507zm58.461-18.196c4.825 0 8.265.93 10.318 2.79 2.055 1.861 3.082 4.89 3.082 9.087v35.776H78.333V89.437c0-2.528-.215-4.019-.645-4.472-.43-.454-1.792-.68-4.084-.68h-7.309v35.776h-14.26V84.083h-1.229l-4.349-11.715 5.578.041v-.002h28.304z" fill="#28539c"/>
    <path d="M185.7 111.944c.709 0 1.4.182 2.077.545a3.878 3.878 0 0 1 1.578 1.562c.377.677.565 1.384.565 2.119 0 .729-.185 1.428-.558 2.099a3.928 3.928 0 0 1-1.561 1.564c-.671.373-1.371.558-2.103.558s-1.433-.185-2.102-.558a3.938 3.938 0 0 1-1.565-1.564 4.25 4.25 0 0 1-.56-2.099c0-.735.189-1.442.567-2.119a3.894 3.894 0 0 1 1.582-1.562c.678-.363 1.371-.545 2.08-.545zm0 .7a3.6 3.6 0 0 0-1.733.457 3.273 3.273 0 0 0-1.318 1.303 3.574 3.574 0 0 0-.476 1.768c0 .607.157 1.19.469 1.749.312.558.747.993 1.307 1.305s1.143.468 1.752.468a3.56 3.56 0 0 0 1.753-.468c.56-.312.993-.747 1.303-1.305.31-.559.464-1.142.464-1.749 0-.613-.156-1.202-.472-1.768-.315-.563-.755-.999-1.318-1.303s-1.142-.457-1.731-.457zm-1.853 5.86v-4.544h1.562c.535 0 .921.04 1.16.124.238.084.428.231.571.439.141.211.212.433.212.667 0 .333-.119.621-.355.868-.237.246-.553.384-.944.414.161.067.291.147.386.241.184.18.407.479.673.901l.555.889h-.896l-.403-.717c-.317-.562-.571-.915-.766-1.057-.135-.104-.331-.156-.589-.156h-.43v1.93h-.736v.001zm.734-2.557h.89c.425 0 .715-.064.87-.191a.62.62 0 0 0 .233-.504.62.62 0 0 0-.113-.361.656.656 0 0 0-.31-.236c-.134-.054-.378-.079-.737-.079h-.833v1.371z"/>
  </g>
</svg>